<?xml version="1.0" encoding="UTF-8" standalone="no"?>
<!DOCTYPE svg PUBLIC "-//W3C//DTD SVG 1.1//EN"
 "http://www.w3.org/Graphics/SVG/1.1/DTD/svg11.dtd">
<!-- Generated by graphviz version 2.44.0 (0)
 -->
<!-- Title: G Pages: 1 -->
<svg width="1827pt" height="368pt"
 viewBox="0.00 0.00 1827.00 368.00" xmlns="http://www.w3.org/2000/svg" xmlns:xlink="http://www.w3.org/1999/xlink">
<g id="graph0" class="graph" transform="scale(1 1) rotate(0) translate(4 364)">
<title>G</title>
<polygon fill="white" stroke="transparent" points="-4,4 -4,-364 1823,-364 1823,4 -4,4"/>
<!-- data.ncloud_nks_kube_config.kube_config -->
<g id="node1" class="node">
<title>data.ncloud_nks_kube_config.kube_config</title>
<polygon fill="none" stroke="black" points="1200,-252 892,-252 892,-216 1200,-216 1200,-252"/>
<text text-anchor="middle" x="1046" y="-230.3" font-family="sans-serif" font-size="14.00">data.ncloud_nks_kube_config.kube_config</text>
</g>
<!-- ncloud_nks_cluster.clusters -->
<g id="node15" class="node">
<title>ncloud_nks_cluster.clusters</title>
<polygon fill="none" stroke="black" points="771.5,-294 565.5,-294 565.5,-258 771.5,-258 771.5,-294"/>
<text text-anchor="middle" x="668.5" y="-272.3" font-family="sans-serif" font-size="14.00">ncloud_nks_cluster.clusters</text>
</g>
<!-- data.ncloud_nks_kube_config.kube_config&#45;&gt;ncloud_nks_cluster.clusters -->
<g id="edge1" class="edge">
<title>data.ncloud_nks_kube_config.kube_config&#45;&gt;ncloud_nks_cluster.clusters</title>
<path fill="none" stroke="black" d="M892,-251.11C855.15,-255.23 816.46,-259.56 781.86,-263.43"/>
<polygon fill="black" stroke="black" points="781.29,-259.97 771.74,-264.56 782.07,-266.93 781.29,-259.97"/>
</g>
<!-- data.ncloud_nks_server_images.image -->
<g id="node2" class="node">
<title>data.ncloud_nks_server_images.image</title>
<polygon fill="none" stroke="black" points="445,-360 160,-360 160,-324 445,-324 445,-360"/>
<text text-anchor="middle" x="302.5" y="-338.3" font-family="sans-serif" font-size="14.00">data.ncloud_nks_server_images.image</text>
</g>
<!-- data.ncloud_nks_server_products.product -->
<g id="node3" class="node">
<title>data.ncloud_nks_server_products.product</title>
<polygon fill="none" stroke="black" points="821.5,-360 515.5,-360 515.5,-324 821.5,-324 821.5,-360"/>
<text text-anchor="middle" x="668.5" y="-338.3" font-family="sans-serif" font-size="14.00">data.ncloud_nks_server_products.product</text>
</g>
<!-- data.ncloud_nks_server_products.product&#45;&gt;data.ncloud_nks_server_images.image -->
<g id="edge2" class="edge">
<title>data.ncloud_nks_server_products.product&#45;&gt;data.ncloud_nks_server_images.image</title>
<path fill="none" stroke="black" d="M515.24,-342C495.41,-342 475.09,-342 455.27,-342"/>
<polygon fill="black" stroke="black" points="455.27,-338.5 445.27,-342 455.27,-345.5 455.27,-338.5"/>
</g>
<!-- data.ncloud_nks_versions.version -->
<g id="node4" class="node">
<title>data.ncloud_nks_versions.version</title>
<polygon fill="none" stroke="black" points="428,-294 177,-294 177,-258 428,-258 428,-294"/>
<text text-anchor="middle" x="302.5" y="-272.3" font-family="sans-serif" font-size="14.00">data.ncloud_nks_versions.version</text>
</g>
<!-- data.ncloud_root_password.bastion -->
<g id="node5" class="node">
<title>data.ncloud_root_password.bastion</title>
<polygon fill="none" stroke="black" points="1527,-90 1267,-90 1267,-54 1527,-54 1527,-90"/>
<text text-anchor="middle" x="1397" y="-68.3" font-family="sans-serif" font-size="14.00">data.ncloud_root_password.bastion</text>
</g>
<!-- ncloud_login_key.key -->
<g id="node14" class="node">
<title>ncloud_login_key.key</title>
<polygon fill="none" stroke="black" points="1126.5,-63 965.5,-63 965.5,-27 1126.5,-27 1126.5,-63"/>
<text text-anchor="middle" x="1046" y="-41.3" font-family="sans-serif" font-size="14.00">ncloud_login_key.key</text>
</g>
<!-- data.ncloud_root_password.bastion&#45;&gt;ncloud_login_key.key -->
<g id="edge3" class="edge">
<title>data.ncloud_root_password.bastion&#45;&gt;ncloud_login_key.key</title>
<path fill="none" stroke="black" d="M1266.54,-61.98C1223.36,-58.64 1176.22,-55 1136.73,-51.94"/>
<polygon fill="black" stroke="black" points="1136.84,-48.44 1126.6,-51.16 1136.3,-55.42 1136.84,-48.44"/>
</g>
<!-- ncloud_server.bastion_server -->
<g id="node21" class="node">
<title>ncloud_server.bastion_server</title>
<polygon fill="none" stroke="black" points="1155.5,-144 936.5,-144 936.5,-108 1155.5,-108 1155.5,-144"/>
<text text-anchor="middle" x="1046" y="-122.3" font-family="sans-serif" font-size="14.00">ncloud_server.bastion_server</text>
</g>
<!-- data.ncloud_root_password.bastion&#45;&gt;ncloud_server.bastion_server -->
<g id="edge4" class="edge">
<title>data.ncloud_root_password.bastion&#45;&gt;ncloud_server.bastion_server</title>
<path fill="none" stroke="black" d="M1279.3,-90.06C1242.81,-95.7 1202.5,-101.94 1165.86,-107.61"/>
<polygon fill="black" stroke="black" points="1164.98,-104.2 1155.63,-109.19 1166.05,-111.12 1164.98,-104.2"/>
</g>
<!-- data.ncloud_server_image_numbers.kvm&#45;image -->
<g id="node6" class="node">
<title>data.ncloud_server_image_numbers.kvm&#45;image</title>
<polygon fill="none" stroke="black" points="843.5,-98 493.5,-98 493.5,-62 843.5,-62 843.5,-98"/>
<text text-anchor="middle" x="668.5" y="-76.3" font-family="sans-serif" font-size="14.00">data.ncloud_server_image_numbers.kvm&#45;image</text>
</g>
<!-- data.ncloud_server_specs.kvm&#45;spec -->
<g id="node7" class="node">
<title>data.ncloud_server_specs.kvm&#45;spec</title>
<polygon fill="none" stroke="black" points="802.5,-190 534.5,-190 534.5,-154 802.5,-154 802.5,-190"/>
<text text-anchor="middle" x="668.5" y="-168.3" font-family="sans-serif" font-size="14.00">data.ncloud_server_specs.kvm&#45;spec</text>
</g>
<!-- local_file.bastion_svr_root_pw -->
<g id="node8" class="node">
<title>local_file.bastion_svr_root_pw</title>
<polygon fill="none" stroke="black" points="1817,-90 1596,-90 1596,-54 1817,-54 1817,-90"/>
<text text-anchor="middle" x="1706.5" y="-68.3" font-family="sans-serif" font-size="14.00">local_file.bastion_svr_root_pw</text>
</g>
<!-- local_file.bastion_svr_root_pw&#45;&gt;data.ncloud_root_password.bastion -->
<g id="edge5" class="edge">
<title>local_file.bastion_svr_root_pw&#45;&gt;data.ncloud_root_password.bastion</title>
<path fill="none" stroke="black" d="M1595.79,-72C1576.84,-72 1556.92,-72 1537.31,-72"/>
<polygon fill="black" stroke="black" points="1537.1,-68.5 1527.1,-72 1537.1,-75.5 1537.1,-68.5"/>
</g>
<!-- local_file.cluster_info -->
<g id="node9" class="node">
<title>local_file.cluster_info</title>
<polygon fill="none" stroke="black" points="1477.5,-252 1316.5,-252 1316.5,-216 1477.5,-216 1477.5,-252"/>
<text text-anchor="middle" x="1397" y="-230.3" font-family="sans-serif" font-size="14.00">local_file.cluster_info</text>
</g>
<!-- ncloud_nks_node_pool.node_pool -->
<g id="node16" class="node">
<title>ncloud_nks_node_pool.node_pool</title>
<polygon fill="none" stroke="black" points="1169.5,-360 922.5,-360 922.5,-324 1169.5,-324 1169.5,-360"/>
<text text-anchor="middle" x="1046" y="-338.3" font-family="sans-serif" font-size="14.00">ncloud_nks_node_pool.node_pool</text>
</g>
<!-- local_file.cluster_info&#45;&gt;ncloud_nks_node_pool.node_pool -->
<g id="edge6" class="edge">
<title>local_file.cluster_info&#45;&gt;ncloud_nks_node_pool.node_pool</title>
<path fill="none" stroke="black" d="M1316.1,-234.84C1288.93,-238.28 1259.52,-245.76 1236,-261 1211.79,-276.69 1224.15,-299.22 1200,-315 1193.41,-319.3 1186.34,-322.98 1178.97,-326.11"/>
<polygon fill="black" stroke="black" points="1177.56,-322.91 1169.5,-329.79 1180.09,-329.43 1177.56,-322.91"/>
</g>
<!-- local_file.cluster_info&#45;&gt;ncloud_server.bastion_server -->
<g id="edge7" class="edge">
<title>local_file.cluster_info&#45;&gt;ncloud_server.bastion_server</title>
<path fill="none" stroke="black" d="M1316.1,-233.16C1288.93,-229.72 1259.52,-222.24 1236,-207 1211.79,-191.31 1224.15,-168.78 1200,-153 1189.49,-146.13 1177.74,-140.87 1165.55,-136.85"/>
<polygon fill="black" stroke="black" points="1166.28,-133.42 1155.7,-133.89 1164.27,-140.12 1166.28,-133.42"/>
</g>
<!-- local_file.node_info -->
<g id="node10" class="node">
<title>local_file.node_info</title>
<polygon fill="none" stroke="black" points="1471,-306 1323,-306 1323,-270 1471,-270 1471,-306"/>
<text text-anchor="middle" x="1397" y="-284.3" font-family="sans-serif" font-size="14.00">local_file.node_info</text>
</g>
<!-- ncloud_access_control_group.acg -->
<g id="node12" class="node">
<title>ncloud_access_control_group.acg</title>
<polygon fill="none" stroke="black" points="1169.5,-198 922.5,-198 922.5,-162 1169.5,-162 1169.5,-198"/>
<text text-anchor="middle" x="1046" y="-176.3" font-family="sans-serif" font-size="14.00">ncloud_access_control_group.acg</text>
</g>
<!-- local_file.node_info&#45;&gt;ncloud_access_control_group.acg -->
<g id="edge8" class="edge">
<title>local_file.node_info&#45;&gt;ncloud_access_control_group.acg</title>
<path fill="none" stroke="black" d="M1322.6,-287.91C1293.7,-284.87 1261.41,-277.47 1236,-261 1211.79,-245.31 1224.15,-222.78 1200,-207 1193.41,-202.7 1186.34,-199.02 1178.97,-195.89"/>
<polygon fill="black" stroke="black" points="1180.09,-192.57 1169.5,-192.21 1177.56,-199.09 1180.09,-192.57"/>
</g>
<!-- local_file.node_info&#45;&gt;ncloud_nks_node_pool.node_pool -->
<g id="edge9" class="edge">
<title>local_file.node_info&#45;&gt;ncloud_nks_node_pool.node_pool</title>
<path fill="none" stroke="black" d="M1322.84,-299.32C1279.55,-306.02 1223.53,-314.69 1173.3,-322.46"/>
<polygon fill="black" stroke="black" points="1172.68,-319.01 1163.34,-324 1173.75,-325.93 1172.68,-319.01"/>
</g>
<!-- local_sensitive_file.ssh_key -->
<g id="node11" class="node">
<title>local_sensitive_file.ssh_key</title>
<polygon fill="none" stroke="black" points="1498.5,-36 1295.5,-36 1295.5,0 1498.5,0 1498.5,-36"/>
<text text-anchor="middle" x="1397" y="-14.3" font-family="sans-serif" font-size="14.00">local_sensitive_file.ssh_key</text>
</g>
<!-- local_sensitive_file.ssh_key&#45;&gt;ncloud_login_key.key -->
<g id="edge10" class="edge">
<title>local_sensitive_file.ssh_key&#45;&gt;ncloud_login_key.key</title>
<path fill="none" stroke="black" d="M1295.05,-25.81C1245.06,-29.68 1185.21,-34.31 1136.82,-38.05"/>
<polygon fill="black" stroke="black" points="1136.38,-34.57 1126.68,-38.84 1136.92,-41.55 1136.38,-34.57"/>
</g>
<!-- ncloud_vpc.vpc -->
<g id="node23" class="node">
<title>ncloud_vpc.vpc</title>
<polygon fill="none" stroke="black" points="124,-121 0,-121 0,-85 124,-85 124,-121"/>
<text text-anchor="middle" x="62" y="-99.3" font-family="sans-serif" font-size="14.00">ncloud_vpc.vpc</text>
</g>
<!-- ncloud_access_control_group.acg&#45;&gt;ncloud_vpc.vpc -->
<g id="edge11" class="edge">
<title>ncloud_access_control_group.acg&#45;&gt;ncloud_vpc.vpc</title>
<path fill="none" stroke="black" d="M922.37,-194.13C900.31,-196.16 877.49,-197.92 856,-199 546.49,-214.52 454.26,-254.2 160,-157 138.18,-149.79 115.65,-137.59 97.8,-126.6"/>
<polygon fill="black" stroke="black" points="99.24,-123.38 88.92,-121 95.51,-129.3 99.24,-123.38"/>
</g>
<!-- ncloud_access_control_group_rule.acg_rules -->
<g id="node13" class="node">
<title>ncloud_access_control_group_rule.acg_rules</title>
<polygon fill="none" stroke="black" points="1558,-198 1236,-198 1236,-162 1558,-162 1558,-198"/>
<text text-anchor="middle" x="1397" y="-176.3" font-family="sans-serif" font-size="14.00">ncloud_access_control_group_rule.acg_rules</text>
</g>
<!-- ncloud_access_control_group_rule.acg_rules&#45;&gt;ncloud_access_control_group.acg -->
<g id="edge12" class="edge">
<title>ncloud_access_control_group_rule.acg_rules&#45;&gt;ncloud_access_control_group.acg</title>
<path fill="none" stroke="black" d="M1235.8,-180C1217.05,-180 1198.08,-180 1179.76,-180"/>
<polygon fill="black" stroke="black" points="1179.66,-176.5 1169.66,-180 1179.66,-183.5 1179.66,-176.5"/>
</g>
<!-- ncloud_nks_cluster.clusters&#45;&gt;data.ncloud_nks_versions.version -->
<g id="edge13" class="edge">
<title>ncloud_nks_cluster.clusters&#45;&gt;data.ncloud_nks_versions.version</title>
<path fill="none" stroke="black" d="M565.14,-276C525.72,-276 480.09,-276 438.08,-276"/>
<polygon fill="black" stroke="black" points="438.05,-272.5 428.05,-276 438.05,-279.5 438.05,-272.5"/>
</g>
<!-- ncloud_subnet.subnets -->
<g id="node22" class="node">
<title>ncloud_subnet.subnets</title>
<polygon fill="none" stroke="black" points="391.5,-148 213.5,-148 213.5,-112 391.5,-112 391.5,-148"/>
<text text-anchor="middle" x="302.5" y="-126.3" font-family="sans-serif" font-size="14.00">ncloud_subnet.subnets</text>
</g>
<!-- ncloud_nks_cluster.clusters&#45;&gt;ncloud_subnet.subnets -->
<g id="edge14" class="edge">
<title>ncloud_nks_cluster.clusters&#45;&gt;ncloud_subnet.subnets</title>
<path fill="none" stroke="black" d="M622.5,-257.95C555.51,-231.08 429.74,-180.64 357.76,-151.76"/>
<polygon fill="black" stroke="black" points="358.98,-148.48 348.4,-148.01 356.37,-154.98 358.98,-148.48"/>
</g>
<!-- ncloud_nks_node_pool.node_pool&#45;&gt;data.ncloud_nks_server_products.product -->
<g id="edge15" class="edge">
<title>ncloud_nks_node_pool.node_pool&#45;&gt;data.ncloud_nks_server_products.product</title>
<path fill="none" stroke="black" d="M922.31,-342C893.47,-342 862.3,-342 832.03,-342"/>
<polygon fill="black" stroke="black" points="831.8,-338.5 821.8,-342 831.8,-345.5 831.8,-338.5"/>
</g>
<!-- ncloud_nks_node_pool.node_pool&#45;&gt;ncloud_nks_cluster.clusters -->
<g id="edge16" class="edge">
<title>ncloud_nks_node_pool.node_pool&#45;&gt;ncloud_nks_cluster.clusters</title>
<path fill="none" stroke="black" d="M942.39,-323.97C892.62,-315.22 832.72,-304.69 781.73,-295.73"/>
<polygon fill="black" stroke="black" points="782.11,-292.24 771.66,-293.96 780.9,-299.13 782.11,-292.24"/>
</g>
<!-- ncloud_public_ip.bastion_ip -->
<g id="node17" class="node">
<title>ncloud_public_ip.bastion_ip</title>
<polygon fill="none" stroke="black" points="1500,-144 1294,-144 1294,-108 1500,-108 1500,-144"/>
<text text-anchor="middle" x="1397" y="-122.3" font-family="sans-serif" font-size="14.00">ncloud_public_ip.bastion_ip</text>
</g>
<!-- ncloud_public_ip.bastion_ip&#45;&gt;ncloud_server.bastion_server -->
<g id="edge17" class="edge">
<title>ncloud_public_ip.bastion_ip&#45;&gt;ncloud_server.bastion_server</title>
<path fill="none" stroke="black" d="M1293.65,-126C1253.6,-126 1207.41,-126 1165.9,-126"/>
<polygon fill="black" stroke="black" points="1165.74,-122.5 1155.74,-126 1165.74,-129.5 1165.74,-122.5"/>
</g>
<!-- ncloud_route_table.private -->
<g id="node18" class="node">
<title>ncloud_route_table.private</title>
<polygon fill="none" stroke="black" points="402.5,-40 202.5,-40 202.5,-4 402.5,-4 402.5,-40"/>
<text text-anchor="middle" x="302.5" y="-18.3" font-family="sans-serif" font-size="14.00">ncloud_route_table.private</text>
</g>
<!-- ncloud_route_table.private&#45;&gt;ncloud_vpc.vpc -->
<g id="edge18" class="edge">
<title>ncloud_route_table.private&#45;&gt;ncloud_vpc.vpc</title>
<path fill="none" stroke="black" d="M202.21,-36.76C187.85,-40.1 173.4,-44.14 160,-49 138.71,-56.73 116.53,-68.74 98.75,-79.48"/>
<polygon fill="black" stroke="black" points="96.57,-76.71 89.89,-84.94 100.24,-82.67 96.57,-76.71"/>
</g>
<!-- ncloud_route_table.public -->
<g id="node19" class="node">
<title>ncloud_route_table.public</title>
<polygon fill="none" stroke="black" points="399.5,-94 205.5,-94 205.5,-58 399.5,-58 399.5,-94"/>
<text text-anchor="middle" x="302.5" y="-72.3" font-family="sans-serif" font-size="14.00">ncloud_route_table.public</text>
</g>
<!-- ncloud_route_table.public&#45;&gt;ncloud_vpc.vpc -->
<g id="edge19" class="edge">
<title>ncloud_route_table.public&#45;&gt;ncloud_vpc.vpc</title>
<path fill="none" stroke="black" d="M205.18,-86.9C181.41,-89.59 156.38,-92.43 134.06,-94.96"/>
<polygon fill="black" stroke="black" points="133.55,-91.49 124.01,-96.09 134.34,-98.45 133.55,-91.49"/>
</g>
<!-- ncloud_route_table_association.subnet_associations -->
<g id="node20" class="node">
<title>ncloud_route_table_association.subnet_associations</title>
<polygon fill="none" stroke="black" points="856,-44 481,-44 481,-8 856,-8 856,-44"/>
<text text-anchor="middle" x="668.5" y="-22.3" font-family="sans-serif" font-size="14.00">ncloud_route_table_association.subnet_associations</text>
</g>
<!-- ncloud_route_table_association.subnet_associations&#45;&gt;ncloud_route_table.private -->
<g id="edge20" class="edge">
<title>ncloud_route_table_association.subnet_associations&#45;&gt;ncloud_route_table.private</title>
<path fill="none" stroke="black" d="M480.97,-23.95C457.59,-23.69 434.31,-23.44 412.67,-23.2"/>
<polygon fill="black" stroke="black" points="412.56,-19.7 402.52,-23.09 412.48,-26.7 412.56,-19.7"/>
</g>
<!-- ncloud_route_table_association.subnet_associations&#45;&gt;ncloud_route_table.public -->
<g id="edge21" class="edge">
<title>ncloud_route_table_association.subnet_associations&#45;&gt;ncloud_route_table.public</title>
<path fill="none" stroke="black" d="M536.34,-44.02C494.74,-49.73 449.29,-55.97 409.67,-61.42"/>
<polygon fill="black" stroke="black" points="409.16,-57.95 399.73,-62.78 410.12,-64.89 409.16,-57.95"/>
</g>
<!-- ncloud_route_table_association.subnet_associations&#45;&gt;ncloud_subnet.subnets -->
<g id="edge22" class="edge">
<title>ncloud_route_table_association.subnet_associations&#45;&gt;ncloud_subnet.subnets</title>
<path fill="none" stroke="black" d="M498.05,-44.08C492.16,-46.73 486.45,-49.69 481,-53 457.59,-67.2 468.09,-88.28 445,-103 431.94,-111.33 416.92,-117.21 401.65,-121.33"/>
<polygon fill="black" stroke="black" points="400.47,-118.02 391.59,-123.8 402.14,-124.82 400.47,-118.02"/>
</g>
<!-- ncloud_server.bastion_server&#45;&gt;data.ncloud_server_image_numbers.kvm&#45;image -->
<g id="edge23" class="edge">
<title>ncloud_server.bastion_server&#45;&gt;data.ncloud_server_image_numbers.kvm&#45;image</title>
<path fill="none" stroke="black" d="M936.39,-112.69C902.24,-108.51 863.81,-103.8 826.98,-99.29"/>
<polygon fill="black" stroke="black" points="826.99,-95.77 816.63,-98.02 826.13,-102.71 826.99,-95.77"/>
</g>
<!-- ncloud_server.bastion_server&#45;&gt;data.ncloud_server_specs.kvm&#45;spec -->
<g id="edge24" class="edge">
<title>ncloud_server.bastion_server&#45;&gt;data.ncloud_server_specs.kvm&#45;spec</title>
<path fill="none" stroke="black" d="M936.39,-139.31C897.77,-144.04 853.68,-149.44 812.62,-154.47"/>
<polygon fill="black" stroke="black" points="812.03,-151.01 802.53,-155.7 812.88,-157.96 812.03,-151.01"/>
</g>
<!-- ncloud_server.bastion_server&#45;&gt;ncloud_subnet.subnets -->
<g id="edge25" class="edge">
<title>ncloud_server.bastion_server&#45;&gt;ncloud_subnet.subnets</title>
<path fill="none" stroke="black" d="M936.39,-126.59C792.36,-127.36 540.28,-128.72 401.69,-129.47"/>
<polygon fill="black" stroke="black" points="401.49,-125.97 391.51,-129.53 401.53,-132.97 401.49,-125.97"/>
</g>
<!-- ncloud_subnet.subnets&#45;&gt;ncloud_vpc.vpc -->
<g id="edge26" class="edge">
<title>ncloud_subnet.subnets&#45;&gt;ncloud_vpc.vpc</title>
<path fill="none" stroke="black" d="M213.37,-120.02C187.36,-117.08 159.23,-113.89 134.41,-111.08"/>
<polygon fill="black" stroke="black" points="134.69,-107.59 124.36,-109.95 133.9,-114.55 134.69,-107.59"/>
</g>
<!-- null_resource.apply_acg -->
<g id="node24" class="node">
<title>null_resource.apply_acg</title>
<polygon fill="none" stroke="black" points="1797.5,-252 1615.5,-252 1615.5,-216 1797.5,-216 1797.5,-252"/>
<text text-anchor="middle" x="1706.5" y="-230.3" font-family="sans-serif" font-size="14.00">null_resource.apply_acg</text>
</g>
<!-- null_resource.apply_acg&#45;&gt;local_file.cluster_info -->
<g id="edge27" class="edge">
<title>null_resource.apply_acg&#45;&gt;local_file.cluster_info</title>
<path fill="none" stroke="black" d="M1615.32,-234C1575.13,-234 1527.91,-234 1487.77,-234"/>
<polygon fill="black" stroke="black" points="1487.72,-230.5 1477.72,-234 1487.72,-237.5 1487.72,-230.5"/>
</g>
<!-- null_resource.apply_acg&#45;&gt;local_file.node_info -->
<g id="edge28" class="edge">
<title>null_resource.apply_acg&#45;&gt;local_file.node_info</title>
<path fill="none" stroke="black" d="M1615.44,-250.69C1596.48,-254.15 1576.59,-257.73 1558,-261 1533.13,-265.37 1506.05,-270 1481.37,-274.16"/>
<polygon fill="black" stroke="black" points="1480.6,-270.74 1471.32,-275.85 1481.76,-277.64 1480.6,-270.74"/>
</g>
<!-- null_resource.apply_acg&#45;&gt;ncloud_access_control_group_rule.acg_rules -->
<g id="edge29" class="edge">
<title>null_resource.apply_acg&#45;&gt;ncloud_access_control_group_rule.acg_rules</title>
<path fill="none" stroke="black" d="M1615.44,-217.31C1596.48,-213.85 1576.59,-210.27 1558,-207 1544.49,-204.62 1530.34,-202.18 1516.27,-199.77"/>
<polygon fill="black" stroke="black" points="1516.49,-196.26 1506.05,-198.02 1515.32,-203.16 1516.49,-196.26"/>
</g>
<!-- null_resource.apply_init_script -->
<g id="node25" class="node">
<title>null_resource.apply_init_script</title>
<polygon fill="none" stroke="black" points="1819,-306 1594,-306 1594,-270 1819,-270 1819,-306"/>
<text text-anchor="middle" x="1706.5" y="-284.3" font-family="sans-serif" font-size="14.00">null_resource.apply_init_script</text>
</g>
<!-- null_resource.apply_init_script&#45;&gt;local_file.cluster_info -->
<g id="edge30" class="edge">
<title>null_resource.apply_init_script&#45;&gt;local_file.cluster_info</title>
<path fill="none" stroke="black" d="M1607.94,-269.95C1591.29,-266.92 1574.15,-263.84 1558,-261 1535.28,-257 1510.73,-252.8 1487.84,-248.93"/>
<polygon fill="black" stroke="black" points="1488.24,-245.45 1477.79,-247.24 1487.07,-252.36 1488.24,-245.45"/>
</g>
<!-- null_resource.apply_init_script&#45;&gt;local_file.node_info -->
<g id="edge31" class="edge">
<title>null_resource.apply_init_script&#45;&gt;local_file.node_info</title>
<path fill="none" stroke="black" d="M1593.62,-288C1556.57,-288 1516.02,-288 1481.49,-288"/>
<polygon fill="black" stroke="black" points="1481.45,-284.5 1471.45,-288 1481.45,-291.5 1481.45,-284.5"/>
</g>
<!-- null_resource.argocd_login -->
<g id="node26" class="node">
<title>null_resource.argocd_login</title>
<polygon fill="none" stroke="black" points="1146,-306 946,-306 946,-270 1146,-270 1146,-306"/>
<text text-anchor="middle" x="1046" y="-284.3" font-family="sans-serif" font-size="14.00">null_resource.argocd_login</text>
</g>
<!-- null_resource.argocd_login&#45;&gt;ncloud_nks_cluster.clusters -->
<g id="edge32" class="edge">
<title>null_resource.argocd_login&#45;&gt;ncloud_nks_cluster.clusters</title>
<path fill="none" stroke="black" d="M945.85,-284.83C895.54,-283.22 834.21,-281.26 782.12,-279.6"/>
<polygon fill="black" stroke="black" points="781.93,-276.09 771.83,-279.27 781.71,-283.09 781.93,-276.09"/>
</g>
</g>
</svg>
