<?xml version="1.0" encoding="UTF-8" standalone="no"?>
<!DOCTYPE svg PUBLIC "-//W3C//DTD SVG 1.1//EN"
 "http://www.w3.org/Graphics/SVG/1.1/DTD/svg11.dtd">
<!-- Generated by graphviz version 2.44.0 (0)
 -->
<!-- Title: G Pages: 1 -->
<svg width="1836pt" height="316pt"
 viewBox="0.00 0.00 1836.00 315.74" xmlns="http://www.w3.org/2000/svg" xmlns:xlink="http://www.w3.org/1999/xlink">
<g id="graph0" class="graph" transform="scale(1 1) rotate(0) translate(4 311.74)">
<title>G</title>
<polygon fill="white" stroke="transparent" points="-4,4 -4,-311.74 1832,-311.74 1832,4 -4,4"/>
<!-- data.ncloud_nks_kube_config.kube_config -->
<g id="node1" class="node">
<title>data.ncloud_nks_kube_config.kube_config</title>
<polygon fill="none" stroke="black" points="1200,-159.74 892,-159.74 892,-123.74 1200,-123.74 1200,-159.74"/>
<text text-anchor="middle" x="1046" y="-138.04" font-family="sans-serif" font-size="14.00">data.ncloud_nks_kube_config.kube_config</text>
</g>
<!-- ncloud_nks_cluster.clusters -->
<g id="node11" class="node">
<title>ncloud_nks_cluster.clusters</title>
<polygon fill="none" stroke="black" points="771.5,-213.74 565.5,-213.74 565.5,-177.74 771.5,-177.74 771.5,-213.74"/>
<text text-anchor="middle" x="668.5" y="-192.04" font-family="sans-serif" font-size="14.00">ncloud_nks_cluster.clusters</text>
</g>
<!-- data.ncloud_nks_kube_config.kube_config&#45;&gt;ncloud_nks_cluster.clusters -->
<g id="edge1" class="edge">
<title>data.ncloud_nks_kube_config.kube_config&#45;&gt;ncloud_nks_cluster.clusters</title>
<path fill="none" stroke="black" d="M919.7,-159.76C875.08,-166.18 825.16,-173.36 781.71,-179.61"/>
<polygon fill="black" stroke="black" points="781.08,-176.16 771.68,-181.05 782.07,-183.09 781.08,-176.16"/>
</g>
<!-- data.ncloud_nks_server_images.image -->
<g id="node2" class="node">
<title>data.ncloud_nks_server_images.image</title>
<polygon fill="none" stroke="black" points="445,-294.74 160,-294.74 160,-258.74 445,-258.74 445,-294.74"/>
<text text-anchor="middle" x="302.5" y="-273.04" font-family="sans-serif" font-size="14.00">data.ncloud_nks_server_images.image</text>
</g>
<!-- data.ncloud_nks_server_products.product -->
<g id="node3" class="node">
<title>data.ncloud_nks_server_products.product</title>
<polygon fill="none" stroke="black" points="821.5,-280.74 515.5,-280.74 515.5,-244.74 821.5,-244.74 821.5,-280.74"/>
<text text-anchor="middle" x="668.5" y="-259.04" font-family="sans-serif" font-size="14.00">data.ncloud_nks_server_products.product</text>
</g>
<!-- data.ncloud_nks_server_products.product&#45;&gt;data.ncloud_nks_server_images.image -->
<g id="edge2" class="edge">
<title>data.ncloud_nks_server_products.product&#45;&gt;data.ncloud_nks_server_images.image</title>
<path fill="none" stroke="black" d="M515.24,-268.6C495.41,-269.36 475.09,-270.15 455.27,-270.91"/>
<polygon fill="black" stroke="black" points="455.12,-267.41 445.27,-271.29 455.39,-274.41 455.12,-267.41"/>
</g>
<!-- data.ncloud_nks_versions.version -->
<g id="node4" class="node">
<title>data.ncloud_nks_versions.version</title>
<polygon fill="none" stroke="black" points="428,-240.74 177,-240.74 177,-204.74 428,-204.74 428,-240.74"/>
<text text-anchor="middle" x="302.5" y="-219.04" font-family="sans-serif" font-size="14.00">data.ncloud_nks_versions.version</text>
</g>
<!-- local_file.cluster_info -->
<g id="node5" class="node">
<title>local_file.cluster_info</title>
<polygon fill="none" stroke="black" points="1477.5,-253.74 1316.5,-253.74 1316.5,-217.74 1477.5,-217.74 1477.5,-253.74"/>
<text text-anchor="middle" x="1397" y="-232.04" font-family="sans-serif" font-size="14.00">local_file.cluster_info</text>
</g>
<!-- ncloud_nks_node_pool.node_pool -->
<g id="node12" class="node">
<title>ncloud_nks_node_pool.node_pool</title>
<polygon fill="none" stroke="black" points="1169.5,-267.74 922.5,-267.74 922.5,-231.74 1169.5,-231.74 1169.5,-267.74"/>
<text text-anchor="middle" x="1046" y="-246.04" font-family="sans-serif" font-size="14.00">ncloud_nks_node_pool.node_pool</text>
</g>
<!-- local_file.cluster_info&#45;&gt;ncloud_nks_node_pool.node_pool -->
<g id="edge3" class="edge">
<title>local_file.cluster_info&#45;&gt;ncloud_nks_node_pool.node_pool</title>
<path fill="none" stroke="black" d="M1316.37,-238.94C1275.98,-240.56 1225.85,-242.57 1179.82,-244.42"/>
<polygon fill="black" stroke="black" points="1179.61,-240.92 1169.76,-244.82 1179.89,-247.92 1179.61,-240.92"/>
</g>
<!-- local_file.node_info -->
<g id="node6" class="node">
<title>local_file.node_info</title>
<polygon fill="none" stroke="black" points="1471,-199.74 1323,-199.74 1323,-163.74 1471,-163.74 1471,-199.74"/>
<text text-anchor="middle" x="1397" y="-178.04" font-family="sans-serif" font-size="14.00">local_file.node_info</text>
</g>
<!-- ncloud_access_control_group.acg -->
<g id="node8" class="node">
<title>ncloud_access_control_group.acg</title>
<polygon fill="none" stroke="black" points="1169.5,-105.74 922.5,-105.74 922.5,-69.74 1169.5,-69.74 1169.5,-105.74"/>
<text text-anchor="middle" x="1046" y="-84.04" font-family="sans-serif" font-size="14.00">ncloud_access_control_group.acg</text>
</g>
<!-- local_file.node_info&#45;&gt;ncloud_access_control_group.acg -->
<g id="edge4" class="edge">
<title>local_file.node_info&#45;&gt;ncloud_access_control_group.acg</title>
<path fill="none" stroke="black" d="M1322.6,-169.81C1294.64,-163.63 1263.02,-154.6 1236,-141.74 1217.94,-133.15 1218.35,-122.7 1200,-114.74 1193.36,-111.87 1186.44,-109.3 1179.36,-107"/>
<polygon fill="black" stroke="black" points="1180.21,-103.6 1169.62,-104.04 1178.17,-110.3 1180.21,-103.6"/>
</g>
<!-- local_file.node_info&#45;&gt;ncloud_nks_node_pool.node_pool -->
<g id="edge5" class="edge">
<title>local_file.node_info&#45;&gt;ncloud_nks_node_pool.node_pool</title>
<path fill="none" stroke="black" d="M1322.83,-190.89C1295.34,-195.16 1263.97,-201.03 1236,-208.74 1219.45,-213.31 1216.53,-218.12 1200,-222.74 1191.32,-225.17 1182.3,-227.43 1173.18,-229.51"/>
<polygon fill="black" stroke="black" points="1172.25,-226.13 1163.25,-231.71 1173.77,-232.97 1172.25,-226.13"/>
</g>
<!-- local_sensitive_file.ssh_key -->
<g id="node7" class="node">
<title>local_sensitive_file.ssh_key</title>
<polygon fill="none" stroke="black" points="1812.5,-307.74 1609.5,-307.74 1609.5,-271.74 1812.5,-271.74 1812.5,-307.74"/>
<text text-anchor="middle" x="1711" y="-286.04" font-family="sans-serif" font-size="14.00">local_sensitive_file.ssh_key</text>
</g>
<!-- ncloud_login_key.key -->
<g id="node10" class="node">
<title>ncloud_login_key.key</title>
<polygon fill="none" stroke="black" points="1477.5,-307.74 1316.5,-307.74 1316.5,-271.74 1477.5,-271.74 1477.5,-307.74"/>
<text text-anchor="middle" x="1397" y="-286.04" font-family="sans-serif" font-size="14.00">ncloud_login_key.key</text>
</g>
<!-- local_sensitive_file.ssh_key&#45;&gt;ncloud_login_key.key -->
<g id="edge6" class="edge">
<title>local_sensitive_file.ssh_key&#45;&gt;ncloud_login_key.key</title>
<path fill="none" stroke="black" d="M1609.13,-289.74C1569.99,-289.74 1525.53,-289.74 1487.54,-289.74"/>
<polygon fill="black" stroke="black" points="1487.52,-286.24 1477.52,-289.74 1487.52,-293.24 1487.52,-286.24"/>
</g>
<!-- ncloud_vpc.vpc -->
<g id="node17" class="node">
<title>ncloud_vpc.vpc</title>
<polygon fill="none" stroke="black" points="124,-105.74 0,-105.74 0,-69.74 124,-69.74 124,-105.74"/>
<text text-anchor="middle" x="62" y="-84.04" font-family="sans-serif" font-size="14.00">ncloud_vpc.vpc</text>
</g>
<!-- ncloud_access_control_group.acg&#45;&gt;ncloud_vpc.vpc -->
<g id="edge7" class="edge">
<title>ncloud_access_control_group.acg&#45;&gt;ncloud_vpc.vpc</title>
<path fill="none" stroke="black" d="M978.14,-69.74C828.67,-32.48 457.24,43.42 160,-33.74 137.07,-39.7 113.81,-52.38 95.81,-63.96"/>
<polygon fill="black" stroke="black" points="93.82,-61.07 87.42,-69.52 97.69,-66.91 93.82,-61.07"/>
</g>
<!-- ncloud_access_control_group_rule.acg_rules -->
<g id="node9" class="node">
<title>ncloud_access_control_group_rule.acg_rules</title>
<polygon fill="none" stroke="black" points="1558,-132.74 1236,-132.74 1236,-96.74 1558,-96.74 1558,-132.74"/>
<text text-anchor="middle" x="1397" y="-111.04" font-family="sans-serif" font-size="14.00">ncloud_access_control_group_rule.acg_rules</text>
</g>
<!-- ncloud_access_control_group_rule.acg_rules&#45;&gt;ncloud_access_control_group.acg -->
<g id="edge8" class="edge">
<title>ncloud_access_control_group_rule.acg_rules&#45;&gt;ncloud_access_control_group.acg</title>
<path fill="none" stroke="black" d="M1235.8,-102.35C1217.05,-100.9 1198.08,-99.43 1179.76,-98.02"/>
<polygon fill="black" stroke="black" points="1179.9,-94.52 1169.66,-97.23 1179.36,-101.5 1179.9,-94.52"/>
</g>
<!-- ncloud_nks_cluster.clusters&#45;&gt;data.ncloud_nks_versions.version -->
<g id="edge9" class="edge">
<title>ncloud_nks_cluster.clusters&#45;&gt;data.ncloud_nks_versions.version</title>
<path fill="none" stroke="black" d="M565.14,-203.34C525.72,-206.26 480.09,-209.65 438.08,-212.76"/>
<polygon fill="black" stroke="black" points="437.76,-209.28 428.05,-213.51 438.28,-216.26 437.76,-209.28"/>
</g>
<!-- ncloud_subnet.subnets -->
<g id="node16" class="node">
<title>ncloud_subnet.subnets</title>
<polygon fill="none" stroke="black" points="391.5,-186.74 213.5,-186.74 213.5,-150.74 391.5,-150.74 391.5,-186.74"/>
<text text-anchor="middle" x="302.5" y="-165.04" font-family="sans-serif" font-size="14.00">ncloud_subnet.subnets</text>
</g>
<!-- ncloud_nks_cluster.clusters&#45;&gt;ncloud_subnet.subnets -->
<g id="edge10" class="edge">
<title>ncloud_nks_cluster.clusters&#45;&gt;ncloud_subnet.subnets</title>
<path fill="none" stroke="black" d="M565.14,-188.15C513.88,-184.35 452.13,-179.77 401.49,-176.01"/>
<polygon fill="black" stroke="black" points="401.75,-172.52 391.52,-175.27 401.23,-179.5 401.75,-172.52"/>
</g>
<!-- ncloud_nks_node_pool.node_pool&#45;&gt;data.ncloud_nks_server_products.product -->
<g id="edge11" class="edge">
<title>ncloud_nks_node_pool.node_pool&#45;&gt;data.ncloud_nks_server_products.product</title>
<path fill="none" stroke="black" d="M922.31,-253.99C893.47,-254.99 862.3,-256.07 832.03,-257.12"/>
<polygon fill="black" stroke="black" points="831.67,-253.63 821.8,-257.47 831.91,-260.62 831.67,-253.63"/>
</g>
<!-- ncloud_nks_node_pool.node_pool&#45;&gt;ncloud_nks_cluster.clusters -->
<g id="edge12" class="edge">
<title>ncloud_nks_node_pool.node_pool&#45;&gt;ncloud_nks_cluster.clusters</title>
<path fill="none" stroke="black" d="M922.31,-232.1C876.96,-225.58 825.82,-218.23 781.47,-211.85"/>
<polygon fill="black" stroke="black" points="781.93,-208.38 771.53,-210.42 780.93,-215.31 781.93,-208.38"/>
</g>
<!-- ncloud_route_table.private -->
<g id="node13" class="node">
<title>ncloud_route_table.private</title>
<polygon fill="none" stroke="black" points="402.5,-78.74 202.5,-78.74 202.5,-42.74 402.5,-42.74 402.5,-78.74"/>
<text text-anchor="middle" x="302.5" y="-57.04" font-family="sans-serif" font-size="14.00">ncloud_route_table.private</text>
</g>
<!-- ncloud_route_table.private&#45;&gt;ncloud_vpc.vpc -->
<g id="edge13" class="edge">
<title>ncloud_route_table.private&#45;&gt;ncloud_vpc.vpc</title>
<path fill="none" stroke="black" d="M202.43,-71.96C179.56,-74.55 155.67,-77.25 134.25,-79.68"/>
<polygon fill="black" stroke="black" points="133.82,-76.2 124.28,-80.81 134.61,-83.16 133.82,-76.2"/>
</g>
<!-- ncloud_route_table.public -->
<g id="node14" class="node">
<title>ncloud_route_table.public</title>
<polygon fill="none" stroke="black" points="399.5,-132.74 205.5,-132.74 205.5,-96.74 399.5,-96.74 399.5,-132.74"/>
<text text-anchor="middle" x="302.5" y="-111.04" font-family="sans-serif" font-size="14.00">ncloud_route_table.public</text>
</g>
<!-- ncloud_route_table.public&#45;&gt;ncloud_vpc.vpc -->
<g id="edge14" class="edge">
<title>ncloud_route_table.public&#45;&gt;ncloud_vpc.vpc</title>
<path fill="none" stroke="black" d="M205.18,-103.84C181.41,-101.15 156.38,-98.32 134.06,-95.79"/>
<polygon fill="black" stroke="black" points="134.34,-92.3 124.01,-94.65 133.55,-99.25 134.34,-92.3"/>
</g>
<!-- ncloud_route_table_association.subnet_associations -->
<g id="node15" class="node">
<title>ncloud_route_table_association.subnet_associations</title>
<polygon fill="none" stroke="black" points="856,-132.74 481,-132.74 481,-96.74 856,-96.74 856,-132.74"/>
<text text-anchor="middle" x="668.5" y="-111.04" font-family="sans-serif" font-size="14.00">ncloud_route_table_association.subnet_associations</text>
</g>
<!-- ncloud_route_table_association.subnet_associations&#45;&gt;ncloud_route_table.private -->
<g id="edge15" class="edge">
<title>ncloud_route_table_association.subnet_associations&#45;&gt;ncloud_route_table.private</title>
<path fill="none" stroke="black" d="M546.04,-96.73C502.88,-90.32 454.59,-83.16 412.54,-76.92"/>
<polygon fill="black" stroke="black" points="412.95,-73.44 402.55,-75.44 411.92,-80.37 412.95,-73.44"/>
</g>
<!-- ncloud_route_table_association.subnet_associations&#45;&gt;ncloud_route_table.public -->
<g id="edge16" class="edge">
<title>ncloud_route_table_association.subnet_associations&#45;&gt;ncloud_route_table.public</title>
<path fill="none" stroke="black" d="M480.97,-114.74C456.57,-114.74 432.28,-114.74 409.86,-114.74"/>
<polygon fill="black" stroke="black" points="409.7,-111.24 399.7,-114.74 409.7,-118.24 409.7,-111.24"/>
</g>
<!-- ncloud_route_table_association.subnet_associations&#45;&gt;ncloud_subnet.subnets -->
<g id="edge17" class="edge">
<title>ncloud_route_table_association.subnet_associations&#45;&gt;ncloud_subnet.subnets</title>
<path fill="none" stroke="black" d="M546.04,-132.76C499.05,-139.74 445.97,-147.61 401.48,-154.21"/>
<polygon fill="black" stroke="black" points="400.92,-150.75 391.54,-155.68 401.95,-157.68 400.92,-150.75"/>
</g>
<!-- ncloud_subnet.subnets&#45;&gt;ncloud_vpc.vpc -->
<g id="edge18" class="edge">
<title>ncloud_subnet.subnets&#45;&gt;ncloud_vpc.vpc</title>
<path fill="none" stroke="black" d="M213.14,-156.4C195.27,-152.65 176.81,-147.85 160,-141.74 138.71,-134.02 116.53,-122 98.75,-111.27"/>
<polygon fill="black" stroke="black" points="100.24,-108.07 89.89,-105.8 96.57,-114.03 100.24,-108.07"/>
</g>
<!-- null_resource.apply_acg -->
<g id="node18" class="node">
<title>null_resource.apply_acg</title>
<polygon fill="none" stroke="black" points="1802,-199.74 1620,-199.74 1620,-163.74 1802,-163.74 1802,-199.74"/>
<text text-anchor="middle" x="1711" y="-178.04" font-family="sans-serif" font-size="14.00">null_resource.apply_acg</text>
</g>
<!-- null_resource.apply_acg&#45;&gt;local_file.cluster_info -->
<g id="edge19" class="edge">
<title>null_resource.apply_acg&#45;&gt;local_file.cluster_info</title>
<path fill="none" stroke="black" d="M1619.6,-197.93C1599.34,-201.53 1577.94,-205.29 1558,-208.74 1535.27,-212.68 1510.71,-216.86 1487.82,-220.73"/>
<polygon fill="black" stroke="black" points="1487.06,-217.31 1477.78,-222.42 1488.22,-224.21 1487.06,-217.31"/>
</g>
<!-- null_resource.apply_acg&#45;&gt;local_file.node_info -->
<g id="edge20" class="edge">
<title>null_resource.apply_acg&#45;&gt;local_file.node_info</title>
<path fill="none" stroke="black" d="M1619.76,-181.74C1576.02,-181.74 1523.84,-181.74 1481.09,-181.74"/>
<polygon fill="black" stroke="black" points="1481,-178.24 1471,-181.74 1481,-185.24 1481,-178.24"/>
</g>
<!-- null_resource.apply_acg&#45;&gt;ncloud_access_control_group_rule.acg_rules -->
<g id="edge21" class="edge">
<title>null_resource.apply_acg&#45;&gt;ncloud_access_control_group_rule.acg_rules</title>
<path fill="none" stroke="black" d="M1625.98,-163.7C1584.54,-154.8 1534.41,-144.04 1491.73,-134.87"/>
<polygon fill="black" stroke="black" points="1492.41,-131.44 1481.9,-132.76 1490.94,-138.28 1492.41,-131.44"/>
</g>
<!-- null_resource.apply_init_script1 -->
<g id="node19" class="node">
<title>null_resource.apply_init_script1</title>
<polygon fill="none" stroke="black" points="1828,-253.74 1594,-253.74 1594,-217.74 1828,-217.74 1828,-253.74"/>
<text text-anchor="middle" x="1711" y="-232.04" font-family="sans-serif" font-size="14.00">null_resource.apply_init_script1</text>
</g>
<!-- null_resource.apply_init_script1&#45;&gt;local_file.cluster_info -->
<g id="edge22" class="edge">
<title>null_resource.apply_init_script1&#45;&gt;local_file.cluster_info</title>
<path fill="none" stroke="black" d="M1593.82,-235.74C1558.81,-235.74 1520.93,-235.74 1487.9,-235.74"/>
<polygon fill="black" stroke="black" points="1487.81,-232.24 1477.81,-235.74 1487.81,-239.24 1487.81,-232.24"/>
</g>
<!-- null_resource.apply_init_script1&#45;&gt;local_file.node_info -->
<g id="edge23" class="edge">
<title>null_resource.apply_init_script1&#45;&gt;local_file.node_info</title>
<path fill="none" stroke="black" d="M1609.05,-217.69C1592.01,-214.68 1574.51,-211.6 1558,-208.74 1533.12,-204.44 1506.04,-199.83 1481.36,-195.67"/>
<polygon fill="black" stroke="black" points="1481.75,-192.19 1471.3,-193.98 1480.58,-199.09 1481.75,-192.19"/>
</g>
<!-- null_resource.argocd_login -->
<g id="node20" class="node">
<title>null_resource.argocd_login</title>
<polygon fill="none" stroke="black" points="1146,-213.74 946,-213.74 946,-177.74 1146,-177.74 1146,-213.74"/>
<text text-anchor="middle" x="1046" y="-192.04" font-family="sans-serif" font-size="14.00">null_resource.argocd_login</text>
</g>
<!-- null_resource.argocd_login&#45;&gt;ncloud_nks_cluster.clusters -->
<g id="edge24" class="edge">
<title>null_resource.argocd_login&#45;&gt;ncloud_nks_cluster.clusters</title>
<path fill="none" stroke="black" d="M945.85,-195.74C895.54,-195.74 834.21,-195.74 782.12,-195.74"/>
<polygon fill="black" stroke="black" points="781.83,-192.24 771.83,-195.74 781.83,-199.24 781.83,-192.24"/>
</g>
</g>
</svg>
